<?xml version="1.0" encoding="iso-8859-1"?>
<!-- Generator: Adobe Illustrator 19.0.0, SVG Export Plug-In . SVG Version: 6.00 Build 0)  -->
<svg version="1.1" id="Layer_1" xmlns="http://www.w3.org/2000/svg" xmlns:xlink="http://www.w3.org/1999/xlink" x="0px" y="0px"
	 viewBox="0 0 511.998 511.998" style="enable-background:new 0 0 511.998 511.998;" xml:space="preserve">
<g>
	<path style="fill:#E6E6E6;" d="M336.339,451.252H175.657c-18.727,0-34.703,13.564-37.74,32.048l-3.41,20.02H377.49l-3.41-20.02
		C371.042,464.816,355.066,451.252,336.339,451.252"/>
	<path style="fill:#D2D5D7;" d="M282.033,381.828c19.17,0,34.712-15.542,34.712-34.712H195.253c0,19.17,15.542,34.712,34.712,34.712
		h8.678v29.696c-15.308,6.708-26.034,21.947-26.034,39.728h86.78c0-17.781-10.726-33.02-26.034-39.728v-29.696H282.033z"/>
	<polygon style="fill:#E6E6E6;" points="4.338,347.114 507.66,347.114 507.66,312.402 4.338,312.402 	"/>
	<path style="fill:#D85C81;" d="M468.138,43.388H43.863c-7.454,0-13.494,6.04-13.494,13.486v16.419
		c0,7.446,6.04,13.486,13.494,13.486c2.525,0,4.999,0.712,7.142,2.048l40.561,25.348c15.655,9.789,35.519,9.789,51.174,0
		l18.25-11.403c15.655-9.789,35.519-9.789,51.174,0l18.25,11.403c2.629,1.64,5.406,2.907,8.227,4.001v64.061
		c0,9.546,7.81,17.356,17.356,17.356s17.356-7.81,17.356-17.356v-64.061c2.829-1.093,5.606-2.36,8.235-4.001l18.25-11.403
		c15.655-9.789,35.519-9.789,51.174,0l18.25,11.403c15.655,9.789,35.519,9.789,51.174,0l40.552-25.348
		c2.143-1.336,4.625-2.048,7.151-2.048c7.446,0,13.486-6.04,13.486-13.486V56.873C481.623,49.428,475.584,43.388,468.138,43.388"/>
	<g>
		<path style="fill:#FBD490;" d="M454.103,218.435L423.6,248.938c-15.881,15.881-41.628,15.881-57.5,0l-11.924-11.924
			c-15.881-15.872-41.628-15.872-57.5,0l-11.924,11.924c-15.881,15.881-41.628,15.881-57.5,0l-11.924-11.924
			c-15.881-15.872-41.628-15.872-57.5,0l-11.924,11.924c-1.736,1.736-3.601,3.228-5.563,4.539c-1.866,1.302-3.827,2.36-5.832,3.315
			v12.219c0,9.546-7.81,17.356-17.356,17.356c-9.546,0-17.356-7.81-17.356-17.356v-12.219c-2.013-0.955-3.974-2.013-5.84-3.315
			c-1.961-1.31-3.827-2.803-5.554-4.539l-30.512-30.503c-1.406-1.406-3.02-2.456-4.756-3.159c-1.727-0.703-3.567-1.05-5.406-1.05
			V312.4h416.542v-98.174c-1.84,0-3.688,0.347-5.415,1.05S455.509,217.029,454.103,218.435"/>
		<path style="fill:#FBD490;" d="M238.643,118.173c0,0-2.404-0.963-3.584-1.536c-1.588-0.729-3.141-1.519-4.643-2.465
			l-18.258-11.403c-15.646-9.789-35.519-9.789-51.165,0l-18.258,11.403c-15.646,9.789-35.519,9.789-51.165,0L65.084,97.623v75.932
			h173.559V118.173z"/>
		<path style="fill:#FBD490;" d="M420.433,114.175c-15.655,9.789-35.519,9.789-51.174,0l-18.25-11.403
			c-15.655-9.789-35.519-9.789-51.174,0l-18.25,11.403c-1.501,0.937-8.227,2.465-8.227,2.465v56.919h173.559V97.626L420.433,114.175
			z"/>
	</g>
	<path style="fill:#D85C81;" d="M484.603,173.557H273.356v8.678c0,9.546-7.81,17.356-17.356,17.356
		c-9.546,0-17.356-7.81-17.356-17.356v-8.678H27.396c-7.94,0-14.379,6.439-14.379,14.379v20.332
		c0,12.809,15.49,19.222,24.541,10.171c5.615-5.615,14.718-5.615,20.332,0l30.512,30.503c3.393,3.393,7.289,5.91,11.394,7.854
		v12.219c0,9.546,7.81,17.356,17.356,17.356c9.546,0,17.356-7.81,17.356-17.356v-12.219c4.096-1.944,8.001-4.46,11.394-7.854
		l11.924-11.924c15.881-15.881,41.62-15.881,57.5,0l11.924,11.924c15.881,15.881,41.62,15.881,57.5,0l11.924-11.924
		c15.881-15.881,41.62-15.881,57.5,0l11.924,11.924c15.881,15.881,41.62,15.881,57.5,0L454.1,218.44
		c5.615-5.615,14.718-5.615,20.333,0c9.06,9.051,24.55,2.638,24.55-10.171v-20.332C498.983,179.996,492.544,173.557,484.603,173.557
		"/>
	<g>
		<path style="fill:#D75A4A;" d="M148.144,43.388l-21.166-29.635c-4.816-6.743-14.839-6.743-19.656,0L86.157,43.388H148.144z"/>
		<path style="fill:#D75A4A;" d="M293.207,43.388L265.828,5.057c-4.816-6.743-14.839-6.743-19.656,0l-27.379,38.331H293.207z"/>
		<path style="fill:#D75A4A;" d="M425.839,43.388l-21.166-29.635c-4.816-6.743-14.839-6.743-19.656,0l-21.166,29.635H425.839z"/>
	</g>
	<path style="fill:#E6E6E6;" d="M412.202,511.998H99.796c-4.79,0-8.678-3.888-8.678-8.678c0-4.79,3.888-8.678,8.678-8.678h312.407
		c4.79,0,8.678,3.888,8.678,8.678C420.88,508.11,416.993,511.998,412.202,511.998"/>
</g>
<g>
</g>
<g>
</g>
<g>
</g>
<g>
</g>
<g>
</g>
<g>
</g>
<g>
</g>
<g>
</g>
<g>
</g>
<g>
</g>
<g>
</g>
<g>
</g>
<g>
</g>
<g>
</g>
<g>
</g>
</svg>
